<svg xmlns="http://www.w3.org/2000/svg" viewBox="0 0 100 100" width="100" height="100">
  <!-- Синий фон -->
  <rect width="100" height="100" rx="12" fill="#2563eb"/>
  
  <!-- Янтра - жёлтый цвет #fde047 -->
  <g stroke="#fde047" stroke-width="2.5" fill="none" stroke-linecap="square" stroke-linejoin="miter">
    
    <!-- Внешний квадрат -->
    <rect x="20" y="20" width="60" height="60"/>
    
    <!-- Верхние врата (Т-образные) -->
    <path d="M 38 20 L 38 12 L 30 12 L 30 20"/>
    <path d="M 62 20 L 62 12 L 70 12 L 70 20"/>
    
    <!-- Нижние врата (Т-образные) -->
    <path d="M 38 80 L 38 88 L 30 88 L 30 80"/>
    <path d="M 62 80 L 62 88 L 70 88 L 70 80"/>
    
    <!-- Левые врата (Т-образные) -->
    <path d="M 20 38 L 12 38 L 12 30 L 20 30"/>
    <path d="M 20 62 L 12 62 L 12 70 L 20 70"/>
    
    <!-- Правые врата (Т-образные) -->
    <path d="M 80 38 L 88 38 L 88 30 L 80 30"/>
    <path d="M 80 62 L 88 62 L 88 70 L 80 70"/>
    
    <!-- Треугольник (вершина вверх) -->
    <polygon points="50,28 76,72 24,72"/>
    
  </g>
  
  <!-- Центральная точка (бинду) - заливка -->
  <circle cx="50" cy="55" r="5" fill="#fde047"/>
  
</svg>
